<svg width="1024" height="1024" viewBox="0 0 1024 1024" fill="none" xmlns="http://www.w3.org/2000/svg">
<rect width="1024" height="1024" fill="#121212"/>
<path d="M223 325.891C223 286.186 255.349 254 295.253 254H727.747C767.651 254 800 286.186 800 325.891C800 365.595 767.651 397.781 727.747 397.781H295.253C255.349 397.781 223 365.595 223 325.891Z" fill="white"/>
<path d="M223 512.5C223 472.796 255.349 440.609 295.253 440.609H531.997C571.902 440.609 604.25 472.796 604.25 512.5C604.25 552.204 571.902 584.391 531.997 584.391H295.253C255.349 584.391 223 552.204 223 512.5Z" fill="white"/>
<path d="M223 699.109C223 659.405 255.349 627.219 295.253 627.219C335.157 627.219 367.506 659.405 367.506 699.109C367.506 738.814 335.157 771 295.253 771C255.349 771 223 738.814 223 699.109Z" fill="white"/>
</svg>
